<svg width="32" height="33" viewBox="0 0 32 33" fill="none" xmlns="http://www.w3.org/2000/svg">
<circle cx="16" cy="16.1646" r="14" fill="white"/>
<g clip-path="url(#clip0_75_2987)">
<path d="M16 9.98284C18.136 9.98284 18.3893 9.99084 19.2327 10.0295C20.1047 10.0695 21.0027 10.2682 21.638 10.9035C22.2793 11.5448 22.472 12.4342 22.512 13.3088C22.5507 14.1522 22.5587 14.4055 22.5587 16.5415C22.5587 18.6775 22.5507 18.9308 22.512 19.7742C22.4727 20.6415 22.2693 21.5482 21.638 22.1795C20.9967 22.8208 20.108 23.0135 19.2327 23.0535C18.3893 23.0922 18.136 23.1002 16 23.1002C13.864 23.1002 13.6107 23.0922 12.7673 23.0535C11.9067 23.0142 10.988 22.8062 10.362 22.1795C9.724 21.5415 9.528 20.6435 9.488 19.7742C9.44933 18.9308 9.44133 18.6775 9.44133 16.5415C9.44133 14.4055 9.44933 14.1522 9.488 13.3088C9.52733 12.4448 9.73267 11.5328 10.362 10.9035C11.002 10.2635 11.8947 10.0695 12.7673 10.0295C13.6107 9.99084 13.864 9.98284 16 9.98284ZM16 8.5415C13.8273 8.5415 13.5547 8.55084 12.7013 8.5895C11.4647 8.64617 10.2367 8.99017 9.34267 9.88417C8.44533 10.7815 8.10467 12.0068 8.048 13.2428C8.00933 14.0962 8 14.3688 8 16.5415C8 18.7142 8.00933 18.9868 8.048 19.8402C8.10467 21.0755 8.45 22.3068 9.34267 23.1988C10.2393 24.0955 11.4667 24.4368 12.7013 24.4935C13.5547 24.5322 13.8273 24.5415 16 24.5415C18.1727 24.5415 18.4453 24.5322 19.2987 24.4935C20.5347 24.4368 21.764 24.0922 22.6573 23.1988C23.5553 22.3008 23.8953 21.0762 23.952 19.8402C23.9907 18.9868 24 18.7142 24 16.5415C24 14.3688 23.9907 14.0962 23.952 13.2428C23.8953 12.0062 23.5507 10.7775 22.6573 9.88417C21.762 8.98884 20.5313 8.6455 19.2987 8.5895C18.4453 8.55084 18.1727 8.5415 16 8.5415Z" fill="#850708"/>
<path d="M16.0001 12.4336C13.7314 12.4336 11.8921 14.2729 11.8921 16.5416C11.8921 18.8103 13.7314 20.6496 16.0001 20.6496C18.2688 20.6496 20.1081 18.8103 20.1081 16.5416C20.1081 14.2729 18.2688 12.4336 16.0001 12.4336ZM16.0001 19.2083C14.5274 19.2083 13.3334 18.0143 13.3334 16.5416C13.3334 15.0689 14.5274 13.8749 16.0001 13.8749C17.4728 13.8749 18.6668 15.0689 18.6668 16.5416C18.6668 18.0143 17.4728 19.2083 16.0001 19.2083Z" fill="#850708"/>
<path d="M20.2705 13.231C20.8007 13.231 21.2305 12.8012 21.2305 12.271C21.2305 11.7408 20.8007 11.311 20.2705 11.311C19.7404 11.311 19.3105 11.7408 19.3105 12.271C19.3105 12.8012 19.7404 13.231 20.2705 13.231Z" fill="#850708"/>
</g>
<defs>
<clipPath id="clip0_75_2987">
<rect width="16" height="16" fill="white" transform="translate(8 8.5415)"/>
</clipPath>
</defs>
</svg>
